# xmcd
#
# Track frame offsets:
#	150
#	9772
#	55332
#	120753
#	179916
#	206357
#	228513
#	244192
#	255854
#
# Disc length: 3544 seconds
#
# Revision: 1
# Processed by: cddbd v1.5.1PL0 Copyright (c) Steve Scherf et al.
# Submitted via: CDex 1.50Beta5
#
DISCID=690dd609
DTITLE=島宮えい子 - めろん奮戦記2
DYEAR=1900
DGENRE=Other
TTITLE0=島宮えい子/わたしはめろん
TTITLE1=CD1話
TTITLE2=CD2話
TTITLE3=CD3話
TTITLE4=CD3話
TTITLE5=CD4話
TTITLE6=CD5話
TTITLE7=CD6話
TTITLE8=島宮えい子/君なの
EXTD=
EXTT0=
EXTT1=
EXTT2=
EXTT3=
EXTT4=
EXTT5=
EXTT6=
EXTT7=
EXTT8=
PLAYORDER=
